#N canvas 2560 24 2560 1393 10;
#X symbolatom 430 116 35 0 0 0 - - -, f 35;
#X msg 430 36 ree ibre pen ource oftware;
#X obj 430 63 list;
#X msg 430 4 F L O S S;
#X obj 430 89 makesymbol F%s/L%s_O%s_S%s_S%s;
#X msg 295 120 bang;
#X symbolatom 295 228 13 0 0 0 - - -, f 13;
#X symbolatom 430 228 12 0 0 0 - - -, f 12;
#N canvas 520 74 621 593 FLOSS-the-Peacemaker 0;
#X msg -14 253 symbol Free_Software;
#X msg 284 252 symbol Open_Source;
#X obj -46 4 inlet;
#X obj -2 354 outlet;
#X obj 296 358 outlet;
#X obj 173 8 inlet;
#X obj 372 197 spigot;
#X obj 449 162 tgl 15 0 empty empty empty 17 7 0 10 -262144 -1 -1 0
1;
#X obj 285 112 delay 50;
#X connect 0 0 3 0;
#X connect 1 0 4 0;
#X connect 2 0 6 0;
#X connect 2 0 0 0;
#X connect 2 0 8 0;
#X connect 6 0 1 0;
#X connect 7 0 6 1;
#X connect 8 0 7 0;
#X restore 295 152 pd FLOSS-the-Peacemaker;
#X msg 378 184 F S F;
#X symbolatom 378 446 25 0 0 0 - - -, f 25;
#X msg 378 274 ree oftware oundation;
#X obj 378 326 makesymbol F%s_S%s_F%s;
#X obj 378 300 list;
#X msg 339 419 G N U;
#X symbolatom 339 562 15 0 0 0 - - -, f 15;
#X obj 339 504 list;
#X obj 339 530 makesymbol G%s_N%s_U%s;
#X symbolatom 201 285 18 0 0 0 - - -, f 18;
#X symbolatom 246 327 21 0 0 0 - - -, f 21;
#X text 259 302 not;
#X msg 201 220 bang;
#X symbolatom 339 877 23 0 0 0 - - -, f 23;
#X obj 339 793 list;
#X msg 339 766 eneral ublic icense;
#X obj 339 821 makesymbol G%s_P%s_L%s;
#X text 332 184 1985;
#X msg 339 732 G N U / G P L;
#X text 248 924 2000 in Paris;
#X msg 182 979 bang;
#X symbolatom 219 1121 37 0 0 0 - - -, f 37;
#X symbolatom 256 1076 69 0 0 0 - - -, f 69;
#X symbolatom 275 1055 55 0 0 0 - - -, f 55;
#X symbolatom 237 1097 32 0 0 0 - - -, f 32;
#X symbolatom 200 1142 51 0 0 0 - - -, f 51;
#X symbolatom 182 1170 14 0 0 0 - - -, f 14;
#X text 492 921 2001 in USA;
#X text 559 227 1998;
#X obj 339 701 delay;
#X msg 366 645 6 Years later;
#X obj 339 618 t b b;
#X msg 119 332 bang;
#X symbolatom 45 421 40 0 0 0 - - -, f 40;
#X symbolatom 82 401 38 0 0 0 - - -, f 38;
#X symbolatom 119 381 43 0 0 0 - - -, f 43;
#X symbolatom 8 441 49 0 0 0 - - -, f 49;
#X text 399 418 1983;
#N canvas 0 25 698 779 die 0;
#X obj 121 36 inlet;
#X obj 15 37 inlet;
#X obj 127 199 hradio 30 1 0 5 empty empty empty 0 -6 0 8 -262144 -1
-1 4;
#X obj 128 112 f;
#X obj 213 112 + 1;
#X obj 272 752 outlet;
#X obj 367 750 outlet;
#X obj 81 753 outlet;
#X obj 176 751 outlet;
#X obj 132 270 gate 4;
#X obj 273 111 mod 5;
#X msg 135 427 symbol Kopien_duerfen_kostenlos_verteilt_werden;
#X msg 116 381 symbol das_Programm_darf_fuer_jeden_Zweck_genutzt_werden
;
#X msg 157 470 symbol um_das_jeweilige_Programm_zu_studieren;
#X msg 177 517 symbol und_es_den_eigenen_Beduerfnissen_anzupassen;
#X connect 0 0 3 0;
#X connect 2 0 9 0;
#X connect 2 0 9 1;
#X connect 3 0 2 0;
#X connect 3 0 4 0;
#X connect 4 0 10 0;
#X connect 9 0 12 0;
#X connect 9 1 11 0;
#X connect 9 2 13 0;
#X connect 9 3 14 0;
#X connect 10 0 3 1;
#X connect 11 0 8 0;
#X connect 12 0 7 0;
#X connect 13 0 5 0;
#X connect 14 0 6 0;
#X restore 8 358 pd die 4 Freiheiten;
#X msg 114 924 -Freie Kunst- Lizenz;
#X msg 339 922 Creative Commons License;
#X text 672 653 1991/92;
#X msg 525 654 GNU/Linux- Distribution;
#X msg 1439 229 CatB;
#X symbolatom 1517 638 13 0 0 0 - - -, f 13;
#X obj 1516 446 list;
#X symbolatom 1264 542 15 0 0 0 - - -, f 15;
#X obj 1264 449 list;
#X msg 1516 420 azaar-Model;
#X obj 1264 475 makesymbol Cat%s;
#X msg 1264 423 hedral-Model;
#X obj 1516 472 makesymbol B%s;
#X text 1393 672 weit voneinander entfernt wohnende Personen die miteinander
kooperieren ... dadurch schnelle Veroeffentlichungen und jeder kann
zum Endprodukt teilhaben;
#X text 1518 111 Linus Torvalds;
#X text 1485 228 1998;
#X msg 339 477 NU_is ot nix;
#X text 439 732 1989;
#X msg 268 766 Copyleft;
#X obj 382 250 bng 15 250 50 0 empty empty empty 17 7 0 10 -262144
-1 -1;
#X obj 8 334 bng 15 250 50 0 empty empty empty 17 7 0 10 -262144 -1
-1;
#N canvas 146 54 1136 643 FnotF 0;
#X obj 367 83 inlet;
#X obj 412 426 outlet;
#X obj 710 430 outlet;
#X obj 587 80 inlet;
#X msg 400 325 symbol FREE_as_in_Freedom;
#X msg 779 321 symbol FREE_as_in_Free_Beer;
#X obj 637 263 spigot;
#X obj 714 228 tgl 15 0 empty empty empty 17 7 0 10 -262144 -1 -1 0
1;
#X obj 650 183 delay 50;
#X connect 0 0 6 0;
#X connect 0 0 4 0;
#X connect 0 0 8 0;
#X connect 4 0 1 0;
#X connect 5 0 2 0;
#X connect 6 0 5 0;
#X connect 7 0 6 1;
#X connect 8 0 7 0;
#X restore 201 251 pd FnotF;
#X obj 1439 324 f;
#X obj 1488 324 + 1;
#X obj 1516 377 bng 15 250 50 0 empty empty empty 17 7 0 10 -262144
-1 -1;
#X obj 1439 376 bng 15 250 50 0 empty empty empty 17 7 0 10 -262144
-1 -1;
#X obj 1439 350 select 1;
#X obj 1439 306 bng 15 250 50 0 empty empty empty 17 7 0 10 -262144
-1 -1;
#X text 1151 570 wenige Programmierer \, in hierarchisch-strukturierten
G ruppen mit engen Managmentvorgaben und langen Abstaenden zwischen
den Veroeffentlichungen....;
#N canvas 0 25 1432 792 die 0;
#X obj 121 36 inlet;
#X obj 462 750 outlet;
#X obj 557 748 outlet;
#X obj 340 40 inlet;
#X msg 116 381 symbol Namensnennung;
#X msg 135 427 symbol Namensnennung/Weitergabe_unter_gleichen_Bedingungen
;
#X msg 157 470 symbol Namensnennung/keine_Weiterbearbeitung;
#X msg 177 517 symbol Namensnennung/nicht_kommerziell;
#X msg 196 574 symbol Namensnennung/nicht_kommerziell/Weitergabe_unter_gleichen_Bedingungen
;
#X msg 228 677 symbol Namensnennung/nicht_kommerziell/keine_Weiterbearbeitung
;
#X obj 132 270 gate 6;
#X obj 127 199 hradio 30 1 0 7 empty empty empty 0 -6 0 8 -262144 -1
-1 6;
#X obj 128 112 f;
#X obj 213 112 + 1;
#X obj 272 752 outlet;
#X obj 367 750 outlet;
#X obj 81 753 outlet;
#X obj 176 751 outlet;
#X obj 273 111 mod 7;
#X connect 0 0 12 0;
#X connect 4 0 16 0;
#X connect 5 0 17 0;
#X connect 6 0 14 0;
#X connect 7 0 15 0;
#X connect 8 0 1 0;
#X connect 9 0 2 0;
#X connect 10 0 4 0;
#X connect 10 1 5 0;
#X connect 10 2 6 0;
#X connect 10 3 7 0;
#X connect 10 4 8 0;
#X connect 10 5 9 0;
#X connect 11 0 10 0;
#X connect 11 0 10 1;
#X connect 12 0 11 0;
#X connect 12 0 13 0;
#X connect 13 0 18 0;
#X connect 18 0 12 1;
#X restore 182 1030 pd die Modelle;
#X obj 1976 60 loadbang;
#X obj 1975 140 f;
#X obj 2002 140 + 1;
#X msg 1976 90 1;
#X obj 1852 234 select 1;
#X obj 1911 233 select 2;
#X obj 1969 230 select 3;
#X obj 2029 232 select 4;
#X obj 2152 229 select 5;
#X obj 1847 263 select 6;
#X obj 1972 265 select 7;
#X obj 2037 266 select 8;
#X obj 2098 267 select 9;
#X obj 1845 294 select 11;
#X obj 1916 298 select 12;
#X obj 2157 267 select 10;
#X obj 1850 348 s a;
#X obj 1876 348 s b;
#X obj 1904 349 s c;
#X obj 1929 348 s d;
#X obj 1993 348 s e;
#X obj 2025 349 s f;
#X obj 2056 348 s g;
#X obj 2005 415 s h;
#X obj 2004 438 s i;
#X obj 2002 462 s j;
#X obj 2002 485 s k;
#X obj 2002 509 s l;
#X obj 403 3 r a;
#X obj 261 119 r b;
#X obj 232 120 r c;
#X obj 174 221 r d;
#X obj 148 221 r e;
#X obj 119 285 r f;
#X obj 119 257 r g;
#X obj 119 233 r h;
#X obj 118 208 r i;
#X obj 119 309 t b b;
#X obj 437 182 r j;
#X obj 310 420 r k;
#X obj 1975 112 metro 3000;
#X msg 38 959 bang;
#X obj 38 912 r f;
#X obj 38 884 r g;
#X obj 38 860 r h;
#X obj 37 835 r i;
#X obj 38 936 t b b b b;
#X obj 366 672 * 1000;
#X connect 0 0 8 1;
#X connect 1 0 2 0;
#X connect 2 0 4 0;
#X connect 3 0 1 0;
#X connect 4 0 0 0;
#X connect 5 0 8 0;
#X connect 6 0 67 0;
#X connect 6 0 68 0;
#X connect 6 0 69 1;
#X connect 8 0 6 0;
#X connect 8 1 7 0;
#X connect 9 0 11 0;
#X connect 9 0 6 0;
#X connect 11 0 13 0;
#X connect 12 0 10 0;
#X connect 13 0 12 0;
#X connect 14 0 64 0;
#X connect 14 0 10 0;
#X connect 15 0 40 0;
#X connect 15 0 51 0;
#X connect 16 0 17 0;
#X connect 17 0 15 0;
#X connect 21 0 69 0;
#X connect 22 0 49 0;
#X connect 22 0 48 0;
#X connect 23 0 25 0;
#X connect 24 0 23 0;
#X connect 25 0 22 0;
#X connect 27 0 24 0;
#X connect 27 0 66 0;
#X connect 29 0 77 0;
#X connect 38 0 27 0;
#X connect 39 0 125 0;
#X connect 40 0 38 0;
#X connect 40 1 39 0;
#X connect 41 0 47 1;
#X connect 47 0 45 0;
#X connect 47 1 42 0;
#X connect 47 2 43 0;
#X connect 47 3 44 0;
#X connect 49 0 77 1;
#X connect 52 0 75 0;
#X connect 53 0 51 0;
#X connect 54 0 60 0;
#X connect 56 0 58 0;
#X connect 57 0 54 0;
#X connect 58 0 55 0;
#X connect 59 0 56 0;
#X connect 60 0 53 0;
#X connect 64 0 16 0;
#X connect 67 0 7 0;
#X connect 68 0 47 0;
#X connect 69 0 18 0;
#X connect 69 1 19 0;
#X connect 70 0 71 0;
#X connect 70 0 74 0;
#X connect 71 0 70 1;
#X connect 72 0 59 0;
#X connect 73 0 57 0;
#X connect 74 0 73 0;
#X connect 74 1 72 0;
#X connect 75 0 70 0;
#X connect 77 0 35 0;
#X connect 77 1 34 0;
#X connect 77 2 30 0;
#X connect 77 3 33 0;
#X connect 77 4 31 0;
#X connect 77 5 32 0;
#X connect 79 0 80 0;
#X connect 79 0 82 0;
#X connect 79 0 83 0;
#X connect 79 0 84 0;
#X connect 79 0 85 0;
#X connect 79 0 86 0;
#X connect 79 0 87 0;
#X connect 79 0 88 0;
#X connect 79 0 89 0;
#X connect 79 0 90 0;
#X connect 79 0 93 0;
#X connect 79 0 91 0;
#X connect 79 0 92 0;
#X connect 79 0 52 0;
#X connect 80 0 79 1;
#X connect 81 0 118 0;
#X connect 82 0 94 0;
#X connect 83 0 95 0;
#X connect 84 0 96 0;
#X connect 85 0 97 0;
#X connect 86 0 98 0;
#X connect 87 0 99 0;
#X connect 88 0 100 0;
#X connect 89 0 101 0;
#X connect 90 0 102 0;
#X connect 91 0 104 0;
#X connect 92 0 105 0;
#X connect 93 0 103 0;
#X connect 106 0 3 0;
#X connect 107 0 5 0;
#X connect 108 0 5 0;
#X connect 109 0 21 0;
#X connect 110 0 21 0;
#X connect 111 0 115 0;
#X connect 112 0 41 0;
#X connect 113 0 41 0;
#X connect 114 0 41 0;
#X connect 115 0 41 0;
#X connect 115 1 41 0;
#X connect 116 0 9 0;
#X connect 117 0 14 0;
#X connect 118 0 79 0;
#X connect 119 0 77 0;
#X connect 120 0 124 0;
#X connect 121 0 119 0;
#X connect 122 0 119 0;
#X connect 123 0 119 0;
#X connect 124 0 119 0;
#X connect 124 1 119 0;
#X connect 124 2 119 0;
#X connect 124 3 119 0;
#X connect 125 0 38 1;
